<svg xmlns="http://www.w3.org/2000/svg" width="1440" height="260" viewBox="0 0 1440 260" role="img" aria-labelledby="title desc">
  <title id="title">fincore wordmark</title>
  <desc id="desc">Noir brutalist fincore wordmark focused on event streams and analytics infrastructure.</desc>
  <rect width="1440" height="260" fill="#0B0B0B"/>
  <path d="M0 58H1440" stroke="#151515" stroke-width="2"/>
  <path d="M0 215H1440" stroke="#171717" stroke-width="2"/>
  <g transform="translate(84 64)">
    <rect x="0" y="0" width="132" height="132" fill="none" stroke="#D9D2C3" stroke-width="3"/>
    <path d="M24 34H108M24 66H108M24 98H108" stroke="#403C36" stroke-width="4" stroke-linecap="square"/>
    <circle cx="44" cy="34" r="7" fill="#8F1D1D"/>
    <circle cx="82" cy="66" r="7" fill="#D9D2C3"/>
    <circle cx="60" cy="98" r="7" fill="#8F1D1D"/>
    <path d="M30 106L54 82L76 88L102 48" fill="none" stroke="#D9D2C3" stroke-width="4" stroke-linecap="square" stroke-linejoin="miter"/>
    <path d="M30 106L54 82L76 88L102 48" fill="none" stroke="#8F1D1D" stroke-width="2" stroke-linecap="square" stroke-linejoin="miter"/>
  </g>
  <text x="256" y="130" fill="#EFE8D8" font-family="'Arial Narrow', 'Helvetica Neue Condensed Bold', 'Roboto Condensed', Arial, sans-serif" font-size="96" font-weight="800" letter-spacing="9">FINCORE</text>
  <path d="M260 154H916" stroke="#8F1D1D" stroke-width="5"/>
  <text x="260" y="194" fill="#A8A096" font-family="'Arial Narrow', 'Roboto Condensed', Arial, sans-serif" font-size="24" font-weight="700" letter-spacing="4">EVENT-DRIVEN DATA + ANALYTICS INFRASTRUCTURE</text>
  <g transform="translate(976 88)" fill="none" stroke-linecap="square">
    <path d="M0 18H310" stroke="#2A2A2A" stroke-width="3"/>
    <path d="M0 58H310" stroke="#2A2A2A" stroke-width="3"/>
    <path d="M0 98H310" stroke="#2A2A2A" stroke-width="3"/>
    <path d="M28 98H80L120 58H176L216 18H282" stroke="#D9D2C3" stroke-width="4"/>
    <path d="M28 58H94L138 18H200L244 58H282" stroke="#8F1D1D" stroke-width="4"/>
  </g>
</svg>
